<svg width="131" height="28" viewBox="0 0 131 28" fill="none" xmlns="http://www.w3.org/2000/svg">
<g clip-path="url(#clip0_1_683)">
<path d="M19.4829 18.8538L15.9552 22.3815C15.4299 22.9067 14.7175 23.2018 13.9747 23.2018C13.2318 23.2018 12.5194 22.9067 11.9941 22.3815L5.56796 15.9553C5.04274 15.43 4.74768 14.7176 4.74768 13.9748C4.74768 13.2319 5.04274 12.5195 5.56796 11.9942L11.9941 5.56804C12.5194 5.04281 13.2318 4.74775 13.9747 4.74775C14.7175 4.74775 15.4299 5.04281 15.9552 5.56804L19.4829 9.09614H24.2308L15.9552 0.820161C15.4299 0.294938 14.7175 -0.00012207 13.9747 -0.00012207C13.2318 -0.00012207 12.5194 0.294938 11.9941 0.820161L0.821016 11.9933C0.295793 12.5186 0.000732422 13.231 0.000732422 13.9738C0.000732422 14.7167 0.295793 15.4291 0.821016 15.9544L11.9941 27.1275C12.5194 27.6527 13.2318 27.9478 13.9747 27.9478C14.7175 27.9478 15.4299 27.6527 15.9552 27.1275L24.2308 18.852L19.4829 18.8538Z" fill="#AE0018"/>
<path d="M34.7693 7.20828L27.561 0H17.8849L31.9139 14.029L17.9424 28H27.5077L34.7693 20.7379V7.20828Z" fill="white"/>
<path d="M53.0453 21.3439H50.514L43.5134 10.5579C43.2941 10.2325 43.1046 9.88782 42.9473 9.52823H42.8908C42.9474 9.90592 42.9756 10.6168 42.9756 11.6609V21.3439H40.7762V6.71362H43.4583L50.2493 17.2928C50.5707 17.7969 50.7849 18.1464 50.8918 18.3411H50.9382C50.869 17.887 50.8345 17.1881 50.8348 16.2441V6.71362H53.0449L53.0453 21.3439Z" fill="white"/>
<path d="M64.8133 21.3439H56.7102V6.71362H64.4836V8.6608H58.9768V12.9682H64.0863V14.9043H58.9768V19.4014H64.8133V21.3439Z" fill="white"/>
<path d="M78.3105 21.3439H75.5812L72.5093 16.036C72.4085 15.866 72.3016 15.5952 72.1885 15.2237H72.1421C72.0458 15.5074 71.9322 15.7848 71.8018 16.0545L68.6664 21.3439H65.9176L70.7346 14.0049L66.314 6.71362H69.091L71.755 11.5969C71.9469 11.9487 72.111 12.315 72.2459 12.6924H72.2835C72.3339 12.5663 72.5134 12.1854 72.8222 11.5496L75.6558 6.71362H78.2247L73.7003 13.9673L78.3105 21.3439Z" fill="white"/>
<path d="M89.9283 8.65894H85.7252V21.3439H83.4507V8.65894H79.2573V6.71176H89.9302L89.9283 8.65894Z" fill="white"/>
<path d="M101.319 20.7699C100.235 21.3173 98.8721 21.5912 97.2287 21.5915C95.1128 21.5915 93.4175 20.9256 92.1429 19.5938C90.8682 18.2619 90.2308 16.5036 90.2305 14.3188C90.2305 12.0396 90.9372 10.1615 92.3506 8.68444C93.764 7.20737 95.5852 6.46914 97.8143 6.46976C99.2184 6.46976 100.387 6.66509 101.319 7.05577V9.35112C100.286 8.77129 99.1422 8.48153 97.888 8.48184C96.295 8.48184 95.017 9.00588 94.0539 10.054C93.0908 11.102 92.6091 12.4733 92.6088 14.1676C92.6088 15.7859 93.0604 17.0956 93.9635 18.0967C94.8666 19.0978 96.0771 19.5984 97.595 19.5984C99.0056 19.5984 100.246 19.2739 101.317 18.6248L101.319 20.7699Z" fill="#AE0018"/>
<path d="M102.925 14.2131C102.925 11.9024 103.572 10.0337 104.865 8.60704C106.159 7.18035 107.906 6.46731 110.104 6.46793C112.163 6.46793 113.817 7.16057 115.065 8.54585C116.313 9.93113 116.936 11.7068 116.935 13.8728C116.935 16.1714 116.299 18.0322 115.027 19.4552C113.756 20.8781 112.037 21.589 109.87 21.5878C107.804 21.5878 106.131 20.9015 104.85 19.5289C103.569 18.1563 102.928 16.3843 102.925 14.2131ZM105.305 14.0527C105.305 15.6645 105.717 16.9915 106.542 18.0337C107.367 19.0759 108.481 19.5969 109.885 19.5966C111.358 19.5966 112.504 19.1008 113.323 18.1093C114.142 17.1178 114.551 15.7781 114.551 14.0902C114.551 12.365 114.156 10.9985 113.366 9.99093C112.576 8.98334 111.45 8.4797 109.989 8.48001C108.567 8.48001 107.431 9.00251 106.579 10.0475C105.728 11.0925 105.303 12.4275 105.305 14.0527Z" fill="#AE0018"/>
<path d="M130.759 21.3439H128.105L125.725 17.3568C125.259 16.5761 124.835 16.0442 124.454 15.7611C124.077 15.4786 123.617 15.3289 123.146 15.3355H121.918V21.3439H119.651V6.71362H124.308C125.825 6.71362 126.998 7.05531 127.826 7.73867C128.655 8.42204 129.07 9.39007 129.07 10.6428C129.07 11.6253 128.784 12.4658 128.211 13.1644C127.639 13.8629 126.839 14.3509 125.812 14.6285V14.666C126.467 14.8932 127.2 15.6615 128.012 16.9711L130.759 21.3439ZM121.918 8.58384V13.4574H123.93C124.767 13.4574 125.436 13.2149 125.937 12.7299C126.438 12.245 126.688 11.6281 126.688 10.8792C126.688 9.34927 125.781 8.58415 123.968 8.58384H121.918Z" fill="#AE0018"/>
<path d="M31.9139 14.029L34.7693 10.8254V7.20828L27.561 0H17.8849L31.9139 14.029Z" fill="#AE0018"/>
</g>
<defs>
<clipPath id="clip0_1_683">
<rect width="130.759" height="28" fill="white"/>
</clipPath>
</defs>
</svg>
